<svg width="24" height="24" viewBox="0 0 24 24" fill="none" xmlns="http://www.w3.org/2000/svg">
<path d="M17.7143 2H6.28571C3.92286 2 2 3.92238 2 6.28571V17.7143C2 20.0776 3.92286 22 6.28571 22H17.7143C20.0771 22 22 20.0776 22 17.7143V6.28571C22 3.92238 20.0771 2 17.7143 2ZM16.7619 12.9524V14.8571V14.8671H16.761C16.7552 16.1752 15.69 17.2381 14.381 17.2381H14.1429C13.6729 17.2381 13.2224 17.0381 12.9067 16.6895C12.5914 16.3414 12.4376 15.8714 12.4843 15.4014C12.569 14.5619 13.3271 13.9048 14.211 13.9048H14.8571C15.3824 13.9048 15.8095 13.4776 15.8095 12.9524V8.28809L10.0952 9.35952V14.381V16.2857C10.0952 17.5986 9.02714 18.6667 7.71429 18.6667H7.47619C7.00619 18.6667 6.55571 18.4667 6.24 18.1181C5.92476 17.77 5.77095 17.3 5.81762 16.83C5.90238 15.9905 6.66048 15.3333 7.54429 15.3333H8.19048C8.71571 15.3333 9.14286 14.9062 9.14286 14.381V7.40619C9.14286 6.94762 9.47 6.55381 9.92048 6.47L15.9162 5.34619C16.1252 5.30667 16.3405 5.3619 16.5038 5.4981C16.6681 5.63429 16.7619 5.83476 16.7619 6.04762V12.9524Z" fill="#2D2D2D"/>
</svg>
