<svg width="24" height="24" viewBox="0 0 24 24" fill="none" xmlns="http://www.w3.org/2000/svg">
<path fill-rule="evenodd" clip-rule="evenodd" d="M2.0035 8.74355C2.32315 8.42703 2.75491 8.24964 3.20474 8.25C3.20487 8.25 3.20461 8.25 3.20474 8.25H20.7915C20.7916 8.25 20.7914 8.25 20.7915 8.25M21.9927 8.74359C22.3124 9.06013 22.4941 9.49025 22.498 9.94034C22.4983 9.96967 22.4968 9.99899 22.4937 10.0281L22.4656 10.286C22.461 10.3277 22.453 10.369 22.4415 10.4093L20.0181 18.9546L20.0169 18.9589C19.8559 19.5139 19.519 20.0019 19.0566 20.3489C18.5943 20.696 18.0317 20.8834 17.4537 20.8828H6.54314C6.54368 20.8828 6.54421 20.8828 6.54475 20.8828L6.54185 20.1328V20.8828H6.54314M3.98708 18.9531C3.98699 18.9528 3.98716 18.9534 3.98708 18.9531ZM3.98708 18.9531L1.56613 10.4166C1.51931 10.2619 1.49636 10.1009 1.49814 9.9392C1.50239 9.48962 1.68402 9.0599 2.0035 8.74355M1.49814 9.9392C1.49815 9.93884 1.49815 9.93848 1.49816 9.93812L2.2481 9.94688L1.49813 9.94028C1.49814 9.93992 1.49814 9.93956 1.49814 9.9392ZM3.20358 9.75C3.14942 9.74994 3.09742 9.7713 3.05892 9.80942C3.02043 9.84754 2.99855 9.89932 2.99807 9.95349L2.99805 9.95564C2.99795 9.96473 2.99926 9.97389 3.00201 9.98274L3.00715 10.0001L5.43101 18.5469C5.4989 18.7882 5.644 19.0006 5.8442 19.1516C6.04434 19.3026 6.28839 19.3838 6.53896 19.3828L6.54185 19.3828L17.4544 19.3828C17.7071 19.383 17.954 19.3011 18.1561 19.1493C18.3578 18.998 18.5051 18.7851 18.5757 18.543C18.5759 18.5424 18.5761 18.5417 18.5762 18.5411L20.9812 10.0607L20.996 9.92557C20.9896 9.88183 20.9691 9.84097 20.9372 9.8094C20.8988 9.77129 20.8468 9.74994 20.7926 9.75H3.20358ZM12.745 13.4028C12.5221 13.3101 12.2768 13.2856 12.0399 13.3323C11.8031 13.3789 11.5854 13.4947 11.4142 13.665M13.3208 12.0177C12.8241 11.8113 12.2776 11.7566 11.75 11.8605ZM13.3208 12.0177C13.8174 12.2241 14.2418 12.5731 14.5403 13.0204C14.8387 13.4677 14.9981 13.9934 14.9981 14.5312V14.5346C14.9948 15.2571 14.7052 15.9487 14.1932 16.4581C13.6812 16.9676 12.9883 17.2534 12.2661 17.2533H12.2624C11.7247 17.2505 11.1998 17.0887 10.754 16.788C10.3082 16.4873 9.96132 16.0612 9.75743 15.5636C9.55337 15.0659 9.5015 14.519 9.60804 13.9919C9.71461 13.4647 9.97495 12.9811 10.356 12.6018C10.7372 12.2226 11.2223 11.9645 11.75 11.8605M12.745 13.4028C12.9678 13.4954 13.1585 13.652 13.2926 13.8529ZM13.2926 13.8529C13.4262 14.0533 13.4977 14.2887 13.4981 14.5295C13.4961 14.8544 13.3657 15.1655 13.1353 15.3947C12.9049 15.624 12.5932 15.7529 12.2683 15.7533C12.0273 15.7517 11.7923 15.679 11.5927 15.5445C11.3926 15.4094 11.2369 15.2181 11.1454 14.9948C11.0538 14.7715 11.0304 14.5258 11.0783 14.2891C11.1261 14.0525 11.2431 13.8353 11.4142 13.665" fill="#2D2D2D"/>
<path fill-rule="evenodd" clip-rule="evenodd" d="M12.0023 2.25C12.2384 2.25 12.4607 2.36115 12.6023 2.55L17.1023 8.55L15.9023 9.45L12.0023 4.25L8.10235 9.45L6.90234 8.55L11.4023 2.55C11.544 2.36115 11.7662 2.25 12.0023 2.25Z" fill="#2D2D2D"/>
</svg>
