<svg width="32" height="32" viewBox="0 0 32 32" fill="none" xmlns="http://www.w3.org/2000/svg">
<path d="M5.33398 7.99935C5.33398 7.26297 5.93093 6.66602 6.66731 6.66602H25.334C26.0704 6.66602 26.6673 7.26297 26.6673 7.99935C26.6673 8.73573 26.0704 9.33268 25.334 9.33268H6.66731C5.93093 9.33268 5.33398 8.73573 5.33398 7.99935Z" fill="white"/>
<path d="M5.33398 15.9993C5.33398 15.263 5.93093 14.666 6.66731 14.666H25.334C26.0704 14.666 26.6673 15.263 26.6673 15.9993C26.6673 16.7357 26.0704 17.3327 25.334 17.3327H6.66731C5.93093 17.3327 5.33398 16.7357 5.33398 15.9993Z" fill="white"/>
<path d="M6.66731 22.666C5.93093 22.666 5.33398 23.263 5.33398 23.9993C5.33398 24.7357 5.93093 25.3327 6.66731 25.3327H25.334C26.0704 25.3327 26.6673 24.7357 26.6673 23.9993C26.6673 23.263 26.0704 22.666 25.334 22.666H6.66731Z" fill="white"/>
</svg>
