<svg width="24" height="24" viewBox="0 0 24 24" fill="none" xmlns="http://www.w3.org/2000/svg">
<path fill-rule="evenodd" clip-rule="evenodd" d="M1.5 7.125C1.5 5.26104 3.01104 3.75 4.875 3.75H19.125C20.9889 3.75 22.5 5.26103 22.5 7.125V16.875C22.5 18.7389 20.9889 20.25 19.125 20.25H4.875C3.01103 20.25 1.5 18.7389 1.5 16.875V7.125ZM4.875 5.25C3.83946 5.25 3 6.08946 3 7.125V16.875C3 17.9105 3.83947 18.75 4.875 18.75H19.125C20.1605 18.75 21 17.9105 21 16.875V7.125C21 6.08947 20.1605 5.25 19.125 5.25H4.875Z" fill="#2D2D2D"/>
<path fill-rule="evenodd" clip-rule="evenodd" d="M0.84375 9C0.84375 8.22335 1.47335 7.59375 2.25 7.59375H21.75C22.5267 7.59375 23.1562 8.22335 23.1562 9C23.1562 9.77665 22.5267 10.4062 21.75 10.4062H2.25C1.47335 10.4062 0.84375 9.77665 0.84375 9ZM4.59375 14.0625C4.59375 13.2858 5.22335 12.6562 6 12.6562H8.25C9.02665 12.6562 9.65625 13.2858 9.65625 14.0625V15C9.65625 15.7767 9.02665 16.4062 8.25 16.4062H6C5.22335 16.4062 4.59375 15.7767 4.59375 15V14.0625Z" fill="#2D2D2D"/>
</svg>
