<svg width="32" height="32" viewBox="0 0 32 32" fill="none" xmlns="http://www.w3.org/2000/svg">
<path fill-rule="evenodd" clip-rule="evenodd" d="M24.9422 7.05703C25.4629 7.57773 25.4629 8.42195 24.9422 8.94265L8.94216 24.9426C8.42146 25.4634 7.57724 25.4634 7.05654 24.9426C6.53584 24.4219 6.53584 23.5777 7.05654 23.057L23.0565 7.05703C23.5772 6.53633 24.4215 6.53633 24.9422 7.05703Z" fill="#2D2D2D"/>
<path fill-rule="evenodd" clip-rule="evenodd" d="M7.05654 7.05703C7.57724 6.53633 8.42146 6.53633 8.94216 7.05703L24.9422 23.057C25.4629 23.5777 25.4629 24.4219 24.9422 24.9426C24.4215 25.4634 23.5772 25.4634 23.0565 24.9426L7.05654 8.94265C6.53584 8.42195 6.53584 7.57773 7.05654 7.05703Z" fill="#2D2D2D"/>
</svg>
