<svg width="24" height="24" viewBox="0 0 24 24" fill="none" xmlns="http://www.w3.org/2000/svg">
<path d="M2 11.9986C2.00116 16.918 5.5784 21.1067 10.437 21.8776V14.8886H7.9V11.9986H10.44V9.79863C10.3265 8.75617 10.6825 7.71722 11.4116 6.96356C12.1408 6.2099 13.1674 5.81964 14.213 5.89863C14.9635 5.91075 15.7122 5.97759 16.453 6.09863V8.55763H15.189C14.7538 8.50063 14.3164 8.64435 13.9998 8.94829C13.6832 9.25224 13.5218 9.68351 13.561 10.1206V11.9986H16.332L15.889 14.8896H13.561V21.8776C18.8155 21.0472 22.5001 16.2484 21.9455 10.9577C21.3909 5.667 16.7913 1.73656 11.4788 2.0138C6.16636 2.29105 2.00084 6.67893 2 11.9986Z" fill="#2D2D2D"/>
</svg>
