<svg width="18" height="18" viewBox="0 0 18 18" fill="none" xmlns="http://www.w3.org/2000/svg">
<path fill-rule="evenodd" clip-rule="evenodd" d="M8.69303 1.10532C8.87358 0.964892 9.12642 0.964892 9.30697 1.10532L16.057 6.35532C16.1788 6.45005 16.25 6.5957 16.25 6.75V15C16.25 15.5304 16.0394 16.0391 15.6643 16.4143C15.2891 16.7894 14.7804 17 14.25 17H3.75C3.2196 17 2.71088 16.7893 2.33579 16.4143C1.96071 16.0392 1.75 15.5304 1.75 15V6.75C1.75 6.5957 1.82124 6.45005 1.94303 6.35532L8.69303 1.10532ZM2.75 6.99454V15C2.75 15.2652 2.85537 15.5196 3.04289 15.7071C3.2304 15.8947 3.48476 16 3.75 16H14.25C14.5152 16 14.7697 15.8946 14.9571 15.7071C15.1446 15.5197 15.25 15.2652 15.25 15V6.99454L9 2.13343L2.75 6.99454Z" fill="#989898"/>
<path fill-rule="evenodd" clip-rule="evenodd" d="M6.25 9C6.25 8.72386 6.47386 8.5 6.75 8.5H11.25C11.5261 8.5 11.75 8.72386 11.75 9V16.5C11.75 16.7761 11.5261 17 11.25 17C10.9739 17 10.75 16.7761 10.75 16.5V9.5H7.25V16.5C7.25 16.7761 7.02614 17 6.75 17C6.47386 17 6.25 16.7761 6.25 16.5V9Z" fill="#989898"/>
</svg>
