<svg width="24" height="24" viewBox="0 0 24 24" fill="none" xmlns="http://www.w3.org/2000/svg">
<path d="M7.83171 2C4.61587 2 2 4.61829 2 7.83496V16.1683C2 19.3841 4.61829 22 7.83496 22H16.1683C19.3841 22 22 19.3817 22 16.165V7.83171C22 4.61587 19.3817 2 16.165 2H7.83171ZM17.8333 5.33333C18.2933 5.33333 18.6667 5.70667 18.6667 6.16667C18.6667 6.62667 18.2933 7 17.8333 7C17.3733 7 17 6.62667 17 6.16667C17 5.70667 17.3733 5.33333 17.8333 5.33333ZM12 7C14.7575 7 17 9.2425 17 12C17 14.7575 14.7575 17 12 17C9.2425 17 7 14.7575 7 12C7 9.2425 9.2425 7 12 7ZM12 8.66667C11.1159 8.66667 10.2681 9.01786 9.64298 9.64298C9.01786 10.2681 8.66667 11.1159 8.66667 12C8.66667 12.8841 9.01786 13.7319 9.64298 14.357C10.2681 14.9821 11.1159 15.3333 12 15.3333C12.8841 15.3333 13.7319 14.9821 14.357 14.357C14.9821 13.7319 15.3333 12.8841 15.3333 12C15.3333 11.1159 14.9821 10.2681 14.357 9.64298C13.7319 9.01786 12.8841 8.66667 12 8.66667Z" fill="#2D2D2D"/>
</svg>
