<svg width="24" height="24" viewBox="0 0 24 24" fill="none" xmlns="http://www.w3.org/2000/svg">
<path fill-rule="evenodd" clip-rule="evenodd" d="M5.85592 3.61739C7.1902 2.72586 8.75888 2.25 10.3636 2.25H10.3636C12.5154 2.25013 14.5791 3.105 16.1006 4.62655L15.5864 5.14081L16.1006 4.62655C17.6222 6.1481 18.4771 8.21174 18.4772 10.3636V10.3636C18.4772 11.9683 18.0013 13.537 17.1098 14.8713C16.2183 16.2055 14.951 17.2454 13.4685 17.8596L13.4685 17.8596C11.986 18.4737 10.3546 18.6343 8.78073 18.3213C7.20684 18.0083 5.76114 17.2355 4.62643 16.1007C4.62642 16.1007 4.62641 16.1007 4.6264 16.1007M4.6264 16.1007C3.49171 14.966 2.71897 13.5204 2.4059 11.9465L3.14061 11.8004L2.4059 11.9465C2.09284 10.3726 2.25351 8.74123 2.86761 7.25866L2.86761 7.25865C3.48172 5.77609 4.52165 4.50892 5.85592 3.61739L5.85592 3.61739M10.3636 3.75C9.05553 3.75001 7.77687 4.13789 6.68928 4.86459C5.60169 5.5913 4.754 6.62421 4.25343 7.83269C3.75286 9.04116 3.6219 10.371 3.87708 11.6539C4.13227 12.9368 4.76214 14.1152 5.68708 15.0401L5.6871 15.0401C6.61202 15.9651 7.79043 16.5949 9.07333 16.8501L8.92703 17.5857L9.07334 16.8501C10.3562 17.1053 11.686 16.9743 12.8945 16.4738M10.3636 3.75C12.1176 3.75012 13.7997 4.44695 15.04 5.68721C16.2802 6.92749 16.9771 8.60962 16.9772 10.3636M15.5703 5.15688L15.04 5.68721L15.5703 5.15688C16.9772 11.6717 16.5893 12.9504 15.8626 14.0379M15.8626 14.0379C15.1359 15.1255 14.103 15.9731 12.8945 16.4738Z" fill="#2D2D2D"/>
<path fill-rule="evenodd" clip-rule="evenodd" d="M15.331 15.3271C15.6239 15.0342 16.0988 15.0342 16.3917 15.3271L21.5344 20.4698C21.8273 20.7627 21.8273 21.2376 21.5344 21.5305C21.2415 21.8233 20.7666 21.8233 20.4737 21.5305L15.331 16.3878C15.0381 16.0949 15.0381 15.62 15.331 15.3271Z" fill="#2D2D2D"/>
</svg>
