<svg width="24" height="24" viewBox="0 0 24 24" fill="none" xmlns="http://www.w3.org/2000/svg">
<path fill-rule="evenodd" clip-rule="evenodd" d="M3 12C3 10.3432 4.34314 9 6 9C7.65686 9 9 10.3432 9 12C9 13.6568 7.65686 15 6 15C4.34314 15 3 13.6568 3 12ZM6 10.5C5.17158 10.5 4.5 11.1716 4.5 12C4.5 12.8284 5.17158 13.5 6 13.5C6.82842 13.5 7.5 12.8284 7.5 12C7.5 11.1716 6.82842 10.5 6 10.5Z" fill="#2D2D2D"/>
<path fill-rule="evenodd" clip-rule="evenodd" d="M15 5.25C15 3.59314 16.3432 2.25 18 2.25C19.6568 2.25 21 3.59314 21 5.25C21 6.90686 19.6568 8.25 18 8.25C16.3432 8.25 15 6.90686 15 5.25ZM18 3.75C17.1716 3.75 16.5 4.42158 16.5 5.25C16.5 6.07842 17.1716 6.75 18 6.75C18.8284 6.75 19.5 6.07842 19.5 5.25C19.5 4.42158 18.8284 3.75 18 3.75Z" fill="#2D2D2D"/>
<path fill-rule="evenodd" clip-rule="evenodd" d="M15 18.75C15 17.0932 16.3432 15.75 18 15.75C19.6568 15.75 21 17.0932 21 18.75C21 20.4068 19.6568 21.75 18 21.75C16.3432 21.75 15 20.4068 15 18.75ZM18 17.25C17.1716 17.25 16.5 17.9216 16.5 18.75C16.5 19.5784 17.1716 20.25 18 20.25C18.8284 20.25 19.5 19.5784 19.5 18.75C19.5 17.9216 18.8284 17.25 18 17.25Z" fill="#2D2D2D"/>
<path fill-rule="evenodd" clip-rule="evenodd" d="M16.6932 5.98547C16.8962 6.34649 16.7682 6.80377 16.4072 7.00684L8.32876 11.5509C7.96775 11.754 7.51046 11.6259 7.30739 11.2649C7.10432 10.9039 7.23236 10.4466 7.59338 10.2435L15.6718 5.69948C16.0328 5.49641 16.4901 5.62445 16.6932 5.98547ZM7.30739 12.7354C7.51046 12.3744 7.96775 12.2464 8.32877 12.4494L16.4072 16.9935C16.7682 17.1966 16.8962 17.6539 16.6932 18.0149C16.4901 18.3759 16.0328 18.504 15.6718 18.3009L7.59337 13.7568C7.23236 13.5537 7.10432 13.0965 7.30739 12.7354Z" fill="#2D2D2D"/>
</svg>
