<svg width="24" height="24" viewBox="0 0 24 24" fill="none" xmlns="http://www.w3.org/2000/svg">
<path d="M11.9913 21.9815C7.95 21.9867 4.3046 19.5538 2.75893 15.8197C1.21326 12.0857 2.0726 7.78802 4.9353 4.93545C7.45447 2.40718 11.1322 1.417 14.5802 2.33867C18.0282 3.26035 20.7214 5.9535 21.6431 9.40153C22.5648 12.8495 21.5746 16.5273 19.0463 19.0464C17.181 20.9277 14.6406 21.9845 11.9913 21.9815ZM10.5093 15.2534C12.347 15.2151 14.1584 15.6947 15.7363 16.6374C15.8336 16.7027 15.9481 16.7375 16.0653 16.7374C16.2788 16.7321 16.4752 16.6192 16.5873 16.4374C16.6746 16.269 16.6897 16.0723 16.6293 15.8924C16.5782 15.7557 16.4718 15.6468 16.3363 15.5924C14.5597 14.5357 12.522 13.999 10.4553 14.0434C9.17303 14.0533 7.89571 14.2038 6.6463 14.4924C6.31873 14.5797 6.11956 14.9112 6.1963 15.2414C6.27365 15.5079 6.5103 15.6969 6.7873 15.7134C6.84046 15.7133 6.89332 15.7055 6.9443 15.6904C8.11265 15.4124 9.3084 15.2659 10.5093 15.2534ZM10.3193 12.2774C12.5676 12.251 14.7823 12.8243 16.7353 13.9384C16.8466 14.0193 16.9807 14.0628 17.1183 14.0625C17.3878 14.052 17.636 13.9134 17.7863 13.6894C17.9037 13.5181 17.9403 13.304 17.8863 13.1034C17.8497 12.9296 17.7406 12.7796 17.5863 12.6914C15.378 11.4162 12.8682 10.7563 10.3183 10.7804C8.97407 10.7722 7.63587 10.9609 6.3463 11.3404C5.95006 11.4709 5.72879 11.8922 5.8463 12.2924C5.9444 12.6159 6.24968 12.8314 6.5873 12.8154C6.65907 12.8162 6.73065 12.8078 6.8003 12.7904C7.94009 12.4401 9.12695 12.2671 10.3193 12.2774ZM10.5083 9.18945C13.0723 9.11549 15.6123 9.70083 17.8853 10.8894C18.0385 10.9732 18.2107 11.0162 18.3853 11.0144C18.6954 11.0209 18.9909 10.8831 19.1853 10.6414C19.3062 10.4203 19.3377 10.1612 19.2733 9.91745C19.2131 9.67431 19.0554 9.4667 18.8373 9.34345C16.2741 7.98109 13.4021 7.30454 10.5003 7.37945C8.89353 7.36291 7.29224 7.56955 5.7423 7.99345C5.30694 8.12809 5.03701 8.56258 5.1092 9.01254C5.18138 9.46249 5.57367 9.79075 6.0293 9.78245C6.11801 9.78252 6.20627 9.76972 6.2913 9.74445C7.66258 9.35565 9.08312 9.16836 10.5083 9.18845V9.18945Z" fill="#2D2D2D"/>
</svg>
