<svg width="16" height="16" viewBox="0 0 16 16" fill="none" xmlns="http://www.w3.org/2000/svg">
<path fill-rule="evenodd" clip-rule="evenodd" d="M3.46883 3.00099C3.74443 2.98377 3.98182 3.19322 3.99904 3.46883L4.62439 13.4744C4.64168 13.8109 4.86506 14 5.12502 14H10.875C11.1324 14 11.3548 13.8151 11.3759 13.4695L12.001 3.46883C12.0182 3.19322 12.2556 2.98377 12.5312 3.00099C12.8068 3.01822 13.0163 3.2556 12.999 3.53121L12.3741 13.5305C12.3741 13.5307 12.3741 13.5303 12.3741 13.5305C12.3243 14.3402 11.7218 15 10.875 15H5.12502C4.286 15 3.66927 14.3464 3.62583 13.5287L3.00099 3.53121C2.98377 3.2556 3.19322 3.01822 3.46883 3.00099Z" fill="#989898"/>
<path fill-rule="evenodd" clip-rule="evenodd" d="M2 3.5C2 3.22386 2.22386 3 2.5 3H13.5C13.7761 3 14 3.22386 14 3.5C14 3.77614 13.7761 4 13.5 4H2.5C2.22386 4 2 3.77614 2 3.5Z" fill="#989898"/>
<path fill-rule="evenodd" clip-rule="evenodd" d="M6.74854 2C6.7159 1.99991 6.68354 2.00627 6.65333 2.01873C6.62319 2.03116 6.5957 2.04947 6.57259 2.07259C6.54951 2.09567 6.53119 2.12311 6.51873 2.15331C6.50628 2.18349 6.49991 2.21586 6.5 2.24853L6.50001 2.25L6.50001 3H9.50001V2.24848C9.50011 2.21588 9.49375 2.18354 9.48129 2.15333C9.46883 2.12313 9.45053 2.09569 9.42745 2.07261C9.40433 2.0495 9.37688 2.03118 9.34674 2.01875C9.31653 2.00629 9.28411 1.99991 9.25148 2L9.25001 2L6.74854 2ZM6.75066 1C6.58645 0.999628 6.4238 1.03168 6.27204 1.09427ZM9.24936 1H6.75066ZM10.1345 1.36545C10.0182 1.2492 9.88011 1.15702 9.72803 1.0943ZM6.27204 1.09427C6.11996 1.157 5.98177 1.2492 5.86551 1.36545ZM5.86551 1.36545C5.86552 1.36545 5.8655 1.36546 5.86551 1.36545C5.74919 1.48176 5.65701 1.61994 5.59429 1.77197ZM5.59429 1.77197C5.53167 1.92378 5.49963 2.08646 5.50001 2.25065C5.50001 2.25037 5.50001 2.25092 5.50001 2.25065M10.5 2.25064C10.5 2.25093 10.5 2.25034 10.5 2.25064ZM10.5 2.25064C10.5004 2.0864 10.4683 1.92373 10.4057 1.77197C10.4057 1.77198 10.4057 1.77197 10.4057 1.77197M5.73216 5.00032C6.00813 4.99047 6.23983 5.20619 6.24969 5.48216L6.49969 12.4822C6.50954 12.7581 6.29382 12.9898 6.01785 12.9997C5.74189 13.0095 5.51018 12.7938 5.50032 12.5178L5.25032 5.51785C5.24047 5.24188 5.45619 5.01018 5.73216 5.00032ZM10.2679 5.00032C10.5438 5.01018 10.7595 5.24188 10.7497 5.51785L10.4997 12.5178C10.4898 12.7938 10.2581 13.0095 9.98216 12.9997C9.70619 12.9898 9.49047 12.7581 9.50032 12.4822L9.75032 5.48216C9.76018 5.20619 9.99189 4.99047 10.2679 5.00032ZM8.00001 5C8.27615 5 8.50001 5.22386 8.50001 5.5V12.5C8.50001 12.7761 8.27615 13 8.00001 13C7.72386 13 7.50001 12.7761 7.50001 12.5V5.5C7.50001 5.22386 7.72386 5 8.00001 5Z" fill="#989898"/>
</svg>
