<svg width="24" height="24" viewBox="0 0 24 24" fill="none" xmlns="http://www.w3.org/2000/svg">
<path d="M12.0207 19.012H12.0007C11.9387 19.012 5.73565 19 4.17065 18.575C3.31007 18.3432 2.638 17.6707 2.40665 16.81C2.12523 15.2224 1.98933 13.6123 2.00065 12C1.99338 10.385 2.13296 8.77271 2.41765 7.183C2.65536 6.32151 3.32448 5.64595 4.18365 5.4C5.70565 5 11.7377 5 11.9937 5H12.0147C12.0777 5 18.2967 5.012 19.8457 5.437C20.7044 5.67001 21.3751 6.3411 21.6077 7.2C21.898 8.79354 22.0343 10.4113 22.0147 12.031C22.0217 13.644 21.8818 15.2543 21.5967 16.842C21.3623 17.7016 20.6898 18.3726 19.8297 18.605C18.3097 19.008 12.2767 19.012 12.0207 19.012ZM10.0207 9.005L10.0157 15.005L15.2277 12.005L10.0207 9.005Z" fill="#2D2D2D"/>
</svg>
