<svg width="24" height="24" viewBox="0 0 24 24" fill="none" xmlns="http://www.w3.org/2000/svg">
<path d="M3.20338 8.99951C2.95131 8.99926 2.70935 9.09864 2.53023 9.276C2.35111 9.45336 2.24935 9.69432 2.24713 9.94639C2.24611 10.0338 2.25876 10.1207 2.28463 10.2042L4.70807 18.7495C4.82039 19.1487 5.06043 19.5 5.39145 19.7498C5.72247 19.9995 6.12622 20.1339 6.54088 20.1323H17.4534C17.8688 20.1327 18.2732 19.998 18.6054 19.7486C18.9377 19.4992 19.1799 19.1486 19.2956 18.7495L21.719 10.2042L21.7471 9.94639C21.7449 9.69432 21.6431 9.45336 21.464 9.276C21.2849 9.09864 21.043 8.99926 20.7909 8.99951H3.20338ZM12.2653 16.5028C11.8756 16.5008 11.4953 16.3835 11.1723 16.1657C10.8493 15.9478 10.5981 15.6391 10.4504 15.2786C10.3026 14.9181 10.265 14.5219 10.3422 14.14C10.4194 13.7582 10.608 13.4077 10.8841 13.1329C11.1603 12.8581 11.5117 12.6712 11.894 12.5959C12.2762 12.5206 12.6722 12.5603 13.032 12.7098C13.3918 12.8593 13.6992 13.1121 13.9155 13.4362C14.1317 13.7603 14.2471 14.1412 14.2471 14.5308C14.2447 15.0547 14.0347 15.5564 13.6633 15.9259C13.2919 16.2955 12.7892 16.5029 12.2653 16.5028V16.5028Z" stroke="#2D2D2D" stroke-width="1.5" stroke-linejoin="round"/>
<path d="M7.50293 8.99951L12.0029 2.99951L16.5029 8.99951" stroke="#2D2D2D" stroke-width="1.5" stroke-linejoin="round"/>
</svg>
